# xmcd CD database file
#
# Track frame offsets:
#	150
#	7595
#	16742
#	30780
#	36485
#	52183
#	62850
#	71122
#	79240
#	89485
#	101608
#	107040
#	122393
#	136818
#	143878
#	157998
#
# Disc length: 2344 seconds
#
# Revision: 0
# Processed by: cddbd v1.5.2PL0 Copyright (c) Steve Scherf et al.
# Submitted via: CDex 1.70beta2
#
DISCID=c9092610
DTITLE=Candela - Tel Aviv - Habana
DYEAR=2009
DGENRE=Salsa
TTITLE0=Halleluya
TTITLE1=Alegria
TTITLE2=Adon Olam
TTITLE3=Mi alma vive contigo
TTITLE4=Hava guila
TTITLE5=Al Kol Eleh
TTITLE6=Asi es la vida
TTITLE7=Bashana Haba'ah
TTITLE8=Felicidades
TTITLE9=Barkhenu
TTITLE10=Ay D.ios
TTITLE11=Evenu Shalom Alekhem
TTITLE12=Yerushalayim shel zahav
TTITLE13=Jerusalem
TTITLE14=Tel-Aviv-Habana
TTITLE15=Havana guila - Remix
EXTD=YEAR: 2009
EXTT0=
EXTT1=
EXTT2=
EXTT3=
EXTT4=
EXTT5=
EXTT6=
EXTT7=
EXTT8=
EXTT9=
EXTT10=
EXTT11=
EXTT12=
EXTT13=
EXTT14=
EXTT15=
PLAYORDER=
